# xmcd
#
# Track frame offsets: 
#        150
#        14735
#        26620
#        37117
#        51872
#        64032
#        77827
#        89967
#        103332
#        116194
#        130099
#        143252
#        155695
#        168056
#        180136
#        192621
#        205383
#        220178
#        235453
#        248430
#        262181
#        276222
#        288340
#        302400
#
# Disc length: 4211 seconds
#
# Revision: 1
# Processed by: cddbd v1.5.2PL0 Copyright (c) Steve Scherf et al.
# Submitted via: ExactAudioCopyFreeDBPlugin 1.0
#
DISCID=64107118
DTITLE=Art Tatum - Swing Time 052 - Art Tatum 01 - 1933-37
DYEAR=1933
DGENRE=Jazz
TTITLE0=Art Tatum - Tea For Two
TTITLE1=Art Tatum - St. Louis Blues
TTITLE2=Art Tatum - Tiger Rag
TTITLE3=Art Tatum - Sophisticated Lady
TTITLE4=Art Tatum - Moon Glow
TTITLE5=Art Tatum - When A Woman Loves A Man
TTITLE6=Art Tatum - Emaline
TTITLE7=Art Tatum - Love Me
TTITLE8=Art Tatum - Cocktails For Two
TTITLE9=Art Tatum - After You've Gone
TTITLE10=Art Tatum - Ill Wind
TTITLE11=Art Tatum - The Shout
TTITLE12=Art Tatum - Liza
TTITLE13=Art Tatum - (I Would Do) Anything For You
TTITLE14=Art Tatum - When A Woman Loves A Man
TTITLE15=Art Tatum - After You've Gone
TTITLE16=Art Tatum - Star Dust
TTITLE17=Art Tatum - I Ain't Got Nobody
TTITLE18=Art Tatum - Beautiful Love
TTITLE19=Art Tatum - Liza
TTITLE20=Art Tatum And His Swingsters - Body And Soul
TTITLE21=Art Tatum And His Swingsters - With Plenty Of Money And You
TTITLE22=Art Tatum And His Swingsters - What Will I Tell My Heart
TTITLE23=Art Tatum And His Swingsters - I've Got My Love To Keep Me Wa
TTITLE23=rm
EXTD=YEAR: 2006
EXTT0=
EXTT1=
EXTT2=
EXTT3=
EXTT4=
EXTT5=
EXTT6=
EXTT7=
EXTT8=
EXTT9=
EXTT10=
EXTT11=
EXTT12=
EXTT13=
EXTT14=
EXTT15=
EXTT16=
EXTT17=
EXTT18=
EXTT19=
EXTT20=
EXTT21=
EXTT22=
EXTT23=
PLAYORDER=
